<svg width="221" height="68" viewBox="0 0 221 68" fill="none" xmlns="http://www.w3.org/2000/svg">
<path d="M97.76 34H94.136V19.888H89.48V16.864H102.416V19.888H97.76V34ZM113.859 34L112.611 29.92H106.371L105.123 34H101.211L107.259 16.792H111.699L117.771 34H113.859ZM110.499 22.888C110.419 22.616 110.315 22.272 110.187 21.856C110.059 21.44 109.931 21.016 109.803 20.584C109.675 20.152 109.571 19.776 109.491 19.456C109.411 19.776 109.299 20.176 109.155 20.656C109.027 21.12 108.899 21.568 108.771 22C108.659 22.416 108.571 22.712 108.507 22.888L107.283 26.872H111.747L110.499 22.888ZM125.413 16.864C127.621 16.864 129.229 17.344 130.237 18.304C131.261 19.248 131.773 20.552 131.773 22.216C131.773 22.968 131.661 23.688 131.437 24.376C131.213 25.048 130.837 25.656 130.309 26.2C129.797 26.728 129.117 27.144 128.269 27.448C127.421 27.752 126.373 27.904 125.125 27.904H123.565V34H119.941V16.864H125.413ZM125.221 19.84H123.565V24.928H124.765C125.453 24.928 126.045 24.84 126.541 24.664C127.037 24.488 127.421 24.208 127.693 23.824C127.965 23.44 128.101 22.944 128.101 22.336C128.101 21.488 127.869 20.864 127.405 20.464C126.941 20.048 126.213 19.84 125.221 19.84ZM144.304 34L143.056 29.92H136.816L135.568 34H131.656L137.704 16.792H142.144L148.216 34H144.304ZM140.944 22.888C140.864 22.616 140.76 22.272 140.632 21.856C140.504 21.44 140.376 21.016 140.248 20.584C140.12 20.152 140.016 19.776 139.936 19.456C139.856 19.776 139.744 20.176 139.6 20.656C139.472 21.12 139.344 21.568 139.216 22C139.104 22.416 139.016 22.712 138.952 22.888L137.728 26.872H142.192L140.944 22.888ZM98.104 42.264V49.256H99.384V54.136H97.24V51H91.368V54.136H89.224V49.256H89.96C90.344 48.6693 90.6693 48.0027 90.936 47.256C91.2027 46.4987 91.416 45.6933 91.576 44.84C91.736 43.9867 91.8533 43.128 91.928 42.264H98.104ZM93.928 44.056C93.8427 44.696 93.736 45.32 93.608 45.928C93.48 46.5253 93.32 47.1013 93.128 47.656C92.9467 48.2107 92.7227 48.744 92.456 49.256H95.72V44.056H93.928ZM108.697 51H106.313V44.056H104.121C104.014 45.336 103.881 46.4293 103.721 47.336C103.572 48.232 103.38 48.9627 103.145 49.528C102.921 50.0933 102.633 50.5093 102.281 50.776C101.929 51.032 101.497 51.16 100.985 51.16C100.708 51.16 100.457 51.1387 100.233 51.096C100.009 51.0533 99.8063 50.9893 99.625 50.904V49C99.7423 49.0427 99.865 49.08 99.993 49.112C100.121 49.144 100.254 49.16 100.393 49.16C100.542 49.16 100.681 49.1013 100.809 48.984C100.948 48.8667 101.076 48.6587 101.193 48.36C101.321 48.0613 101.438 47.6507 101.545 47.128C101.652 46.6053 101.748 45.9493 101.833 45.16C101.929 44.36 102.014 43.3947 102.089 42.264H108.697V51ZM112.514 51H109.938L112.289 47.544C111.991 47.416 111.708 47.2453 111.442 47.032C111.186 46.808 110.978 46.5253 110.818 46.184C110.658 45.8427 110.578 45.4373 110.578 44.968C110.578 44.0933 110.908 43.4267 111.57 42.968C112.231 42.4987 113.079 42.264 114.114 42.264H118.178V51H115.794V47.752H114.482L112.514 51ZM112.914 44.984C112.914 45.3467 113.058 45.6347 113.346 45.848C113.634 46.0507 114.007 46.152 114.466 46.152H115.794V43.944H114.161C113.735 43.944 113.42 44.0507 113.218 44.264C113.015 44.4667 112.914 44.7067 112.914 44.984ZM125.284 51V39.576H132.5V41.576H127.7V43.96H128.66C129.737 43.96 130.617 44.1093 131.3 44.408C131.993 44.7067 132.505 45.1173 132.836 45.64C133.166 46.1627 133.332 46.76 133.332 47.432C133.332 48.1787 133.166 48.8187 132.836 49.352C132.505 49.8853 131.993 50.296 131.3 50.584C130.606 50.8613 129.71 51 128.612 51H125.284ZM128.516 49.016C129.252 49.016 129.828 48.8987 130.244 48.664C130.67 48.4293 130.884 48.0187 130.884 47.432C130.884 47.0267 130.777 46.7173 130.564 46.504C130.361 46.2907 130.068 46.1467 129.684 46.072C129.31 45.9867 128.857 45.944 128.324 45.944H127.7V49.016H128.516ZM135.487 39.576H137.663V45.096C137.663 45.3627 137.658 45.6613 137.647 45.992C137.636 46.3227 137.626 46.648 137.615 46.968C137.604 47.2773 137.594 47.5493 137.583 47.784C137.572 48.008 137.562 48.1627 137.551 48.248H137.599L142.879 39.576H145.775V51H143.615V45.512C143.615 45.224 143.62 44.9093 143.631 44.568C143.642 44.216 143.652 43.88 143.663 43.56C143.684 43.24 143.7 42.9627 143.711 42.728C143.732 42.4827 143.748 42.3227 143.759 42.248H143.695L138.399 51H135.487V39.576ZM156.547 42.248C156.547 43.016 156.275 43.6347 155.731 44.104C155.187 44.5733 154.493 44.8667 153.651 44.984V45.032C154.696 45.1387 155.496 45.432 156.051 45.912C156.616 46.3813 156.899 46.9947 156.899 47.752C156.899 48.4133 156.717 49.0053 156.355 49.528C155.992 50.04 155.453 50.44 154.739 50.728C154.024 51.016 153.139 51.16 152.083 51.16C151.219 51.16 150.451 51.1067 149.779 51C149.117 50.8933 148.541 50.7387 148.051 50.536V48.504C148.381 48.664 148.755 48.8027 149.171 48.92C149.587 49.0267 150.008 49.112 150.435 49.176C150.861 49.2293 151.256 49.256 151.619 49.256C152.632 49.256 153.363 49.112 153.811 48.824C154.269 48.5253 154.499 48.1093 154.499 47.576C154.499 47.032 154.168 46.6373 153.507 46.392C152.845 46.136 151.955 46.008 150.835 46.008H149.763V44.12H150.723C151.629 44.12 152.333 44.0613 152.835 43.944C153.336 43.8267 153.688 43.656 153.891 43.432C154.093 43.208 154.195 42.9413 154.195 42.632C154.195 42.2373 154.019 41.928 153.667 41.704C153.325 41.4693 152.808 41.352 152.115 41.352C151.528 41.352 150.973 41.4373 150.451 41.608C149.939 41.7787 149.459 42.0027 149.011 42.28L147.955 40.664C148.349 40.408 148.765 40.1893 149.203 40.008C149.651 39.816 150.141 39.672 150.675 39.576C151.208 39.4693 151.8 39.416 152.451 39.416C153.315 39.416 154.051 39.5387 154.659 39.784C155.267 40.0293 155.731 40.3653 156.051 40.792C156.381 41.208 156.547 41.6933 156.547 42.248ZM168.394 51H165.978V46.072H161.45V51H159.034V39.576H161.45V44.056H165.978V39.576H168.394V51ZM177.844 51H171.268V39.576H177.844V41.56H173.684V44.072H177.556V46.056H173.684V49H177.844V51ZM185.069 41.432C184.611 41.432 184.2 41.5227 183.837 41.704C183.485 41.8853 183.187 42.1467 182.941 42.488C182.696 42.8187 182.509 43.224 182.381 43.704C182.264 44.184 182.205 44.7227 182.205 45.32C182.205 46.1307 182.301 46.824 182.493 47.4C182.696 47.9653 183.011 48.3973 183.437 48.696C183.864 48.9947 184.408 49.144 185.069 49.144C185.539 49.144 186.003 49.0907 186.461 48.984C186.931 48.8773 187.437 48.728 187.981 48.536V50.568C187.48 50.7707 186.984 50.92 186.493 51.016C186.003 51.112 185.453 51.16 184.845 51.16C183.672 51.16 182.701 50.92 181.933 50.44C181.176 49.9493 180.616 49.2667 180.253 48.392C179.891 47.5067 179.709 46.4773 179.709 45.304C179.709 44.44 179.827 43.6507 180.061 42.936C180.296 42.2107 180.637 41.5867 181.085 41.064C181.544 40.5413 182.104 40.136 182.765 39.848C183.437 39.56 184.205 39.416 185.069 39.416C185.635 39.416 186.2 39.4907 186.765 39.64C187.341 39.7787 187.891 39.9707 188.413 40.216L187.629 42.184C187.203 41.9813 186.771 41.8053 186.333 41.656C185.907 41.5067 185.485 41.432 185.069 41.432ZM197.401 51L196.569 48.28H192.409L191.577 51H188.969L193.001 39.528H195.961L200.009 51H197.401ZM195.161 43.592C195.107 43.4107 195.038 43.1813 194.953 42.904C194.867 42.6267 194.782 42.344 194.697 42.056C194.611 41.768 194.542 41.5173 194.489 41.304C194.435 41.5173 194.361 41.784 194.265 42.104C194.179 42.4133 194.094 42.712 194.009 43C193.934 43.2773 193.875 43.4747 193.833 43.592L193.017 46.248H195.993L195.161 43.592Z" fill="#0049C8"/>
<path d="M42.9649 -1.92853e-07L77.3426 9.09996L36.8983 26.2888L3.53174 12.563L42.9649 -1.92853e-07Z" fill="#0049C8"/>
<path d="M3.86816 12.3564L36.8981 26.2888L36.8981 36.3998L28.8093 32.3554L28.8093 28.311L24.7649 27.2999L23.7538 28.311L19.7093 26.2888L19.7093 25.2777L14.6538 22.2444L10.6094 25.2777L3.86816 22.2444L3.86816 12.3564Z" fill="#0049C8"/>
<path d="M36.8982 26.2888L77.3424 9.09996L77.3425 18.1999L69.2536 22.2443L66.2203 18.1999L60.1536 21.2332L60.1536 25.2777L52.0648 29.3221L50.0425 27.2999L50.0425 25.2777L44.987 27.2999L44.987 32.3554L36.8981 36.3998L36.8982 26.2888Z" fill="#0049C8"/>
<path d="M37.3964 38.4221L76.3312 21.2332V24.2666L37.3963 40.4443L4.02979 26.7185L8.58699 25.2777L37.3964 38.4221Z" fill="#999999"/>
<path d="M4.36621 26.5119L37.3962 40.4443L37.3962 50.5553L29.3073 46.5109L29.3073 42.4665L25.2629 41.4554L24.2518 42.4665L20.2074 40.4443L20.2074 39.4332L15.1518 36.3998L11.1074 39.4332L4.36621 36.3998L4.36621 26.5119Z" fill="#999999"/>
<path d="M37.2758 40.4952L76.3768 23.8745L76.4851 32.9286L68.6721 36.8564L65.6761 32.7962L59.8163 35.742L59.8645 39.7661L52.0515 43.6938L50.0622 41.6577L50.0381 39.6457L45.149 41.5975L45.2092 46.6276L37.3962 50.5553L37.2758 40.4952Z" fill="#999999"/>
<path d="M39.4191 53.5887L76.3316 35.3887V39.4332L39.419 55.6109L4.54297 40.4443L7.57629 39.4332L39.4191 53.5887Z" fill="#999999"/>
<path d="M4.54297 40.4443L39.9317 55.6109L39.9317 64.7108L29.4841 60.4433L25.4397 58.886L25.4397 55.3878L25.4397 53.8991L20.7207 51.5665L13.6429 48.5331L11.6207 48.5331L11.6207 50.5553L11.6207 52.5776L4.54297 50.3322L4.54297 40.4443Z" fill="#999999"/>
<path d="M39.2982 55.6618L76.3312 39.4332L76.3312 47.522L67.6985 51.2061L67.6985 47.9628L66.2202 47.522L64.198 48.5331L58.1313 51.5665L57.1202 52.023L52.0646 54.5998L52.0647 57.6331L52.0646 58.6442L45.998 61.6775L39.9313 64.7108L39.2982 55.6618Z" fill="#999999"/>
</svg>
